<svg xmlns="http://www.w3.org/2000/svg" width="44" height="44" viewBox="0 0 44 44">
  <g id="current-default" transform="translate(-946 -578)">
    <rect id="Frame" width="44" height="44" transform="translate(946 578)" fill="none"/>
    <path id="Subtraction" d="M6881-4768h-14a5.005,5.005,0,0,1-5-5v-2h4a2,2,0,0,0,2-2,2,2,0,0,0-2-2h-4v-2h4a2,2,0,0,0,2-2,2,2,0,0,0-2-2h-4v-2h4a2,2,0,0,0,2-2,2,2,0,0,0-2-2h-4v-2a5.005,5.005,0,0,1,5-5h14a5.005,5.005,0,0,1,5,5v20A5.005,5.005,0,0,1,6881-4768Zm-8-21.921a1.006,1.006,0,0,0-1,1v11.839a1,1,0,0,0,1,1,.985.985,0,0,0,.619-.221l7.4-5.919a1,1,0,0,0,.376-.782.993.993,0,0,0-.376-.778l-7.4-5.921A.979.979,0,0,0,6873-4789.921Z" transform="translate(-5906 5383)" fill="#fff"/>
  </g>
</svg>
