<svg xmlns="http://www.w3.org/2000/svg" width="44" height="44" viewBox="0 0 44 44">
  <g id="designsys-default" transform="translate(-946 -578)">
    <rect id="Frame" width="44" height="44" transform="translate(946 578)" fill="none"/>
    <path id="Subtraction" d="M6884-4768h-20a5.007,5.007,0,0,1-5-5v-20a5.008,5.008,0,0,1,5-5h15.073a7.068,7.068,0,0,0-.071,1,7.007,7.007,0,0,0,7,7,6.921,6.921,0,0,0,3-.675V-4773A5.006,5.006,0,0,1,6884-4768Zm-10.5-11a2.5,2.5,0,0,0-2.5,2.5,2.5,2.5,0,0,0,2.5,2.5,2.5,2.5,0,0,0,2.5-2.5A2.5,2.5,0,0,0,6873.5-4779Zm8.5-7a3,3,0,0,0-3,3,3,3,0,0,0,3,3,3.005,3.005,0,0,0,3-3A3,3,0,0,0,6882-4786Zm-13-6a4,4,0,0,0-4,4,4.006,4.006,0,0,0,4,4,4,4,0,0,0,4-4A4,4,0,0,0,6869-4792Zm17,0a5.007,5.007,0,0,1-5-5,5.006,5.006,0,0,1,2.994-4.579l.021-.009.014-.006.008,0a4.967,4.967,0,0,1,1.961-.4,4.955,4.955,0,0,1,2.21.514,5.021,5.021,0,0,1,2.718,3.629,5.056,5.056,0,0,1,.073.855v.254a.024.024,0,0,0,0,.006A5,5,0,0,1,6886-4792Z" transform="translate(-5906 5383)" fill="#fff"/>
  </g>
</svg>
