<svg xmlns="http://www.w3.org/2000/svg" width="44" height="44" viewBox="0 0 44 44">
  <g id="home-default" transform="translate(-946 -578)">
    <rect id="Frame" width="44" height="44" transform="translate(946 578)" fill="none"/>
    <path id="Subtraction" d="M6884-4768h-20a5.006,5.006,0,0,1-5-5v-20a5.006,5.006,0,0,1,5-5h20a5.006,5.006,0,0,1,5,5v20A5.006,5.006,0,0,1,6884-4768Zm-8-14a1,1,0,0,0-1,1v5a1,1,0,0,0,1,1h5a1,1,0,0,0,1-1v-5a1,1,0,0,0-1-1Zm-9,0a1,1,0,0,0-1,1v5a1,1,0,0,0,1,1h5a1,1,0,0,0,1-1v-5a1,1,0,0,0-1-1Zm9-10a1,1,0,0,0-1,1v6a1,1,0,0,0,1,1h5a1,1,0,0,0,1-1v-1A6.006,6.006,0,0,0,6876-4792Zm-4,0a6.006,6.006,0,0,0-6,6v1a1,1,0,0,0,1,1h5a1,1,0,0,0,1-1v-6A1,1,0,0,0,6872-4792Z" transform="translate(-5906 5383)" fill="#fff"/>
  </g>
</svg>
