<svg xmlns="http://www.w3.org/2000/svg" width="44" height="44" viewBox="0 0 44 44">
  <g id="planner-default" transform="translate(-946 -578)">
    <rect id="Frame" width="44" height="44" transform="translate(946 578)" fill="none"/>
    <path id="Subtraction" d="M6881-4768h-14a5.005,5.005,0,0,1-5-5v-15h24v15A5.005,5.005,0,0,1,6881-4768Zm-5-9a1,1,0,0,0-1,1v1a1,1,0,0,0,1,1h5a1,1,0,0,0,1-1v-1a1,1,0,0,0-1-1Zm-9,0a1,1,0,0,0-1,1v1a1,1,0,0,0,1,1h5a1,1,0,0,0,1-1v-1a1,1,0,0,0-1-1Zm9-5a1,1,0,0,0-1,1v1a1,1,0,0,0,1,1h5a1,1,0,0,0,1-1v-1a1,1,0,0,0-1-1Zm-9,0a1,1,0,0,0-1,1v1a1,1,0,0,0,1,1h5a1,1,0,0,0,1-1v-1a1,1,0,0,0-1-1Zm19-8h-4v-1a1,1,0,0,0-1-1h-1a1,1,0,0,0-1,1v1h-10v-1a1,1,0,0,0-1-1h-1a1,1,0,0,0-1,1v1h-4v-3a5.005,5.005,0,0,1,5-5h14a5.005,5.005,0,0,1,5,5v3Z" transform="translate(-5906 5383)" fill="#fff"/>
  </g>
</svg>
