<svg xmlns="http://www.w3.org/2000/svg" width="44" height="44" viewBox="0 0 44 44">
  <g id="workouts-default" transform="translate(-1050 -627)">
    <rect id="Frame" width="44" height="44" transform="translate(1050 627)" fill="none"/>
    <path id="Union" d="M6865.47-4767.641l-5.176-19.319a5,5,0,0,1,3.535-6.122l13.524-3.625a5.005,5.005,0,0,1,6.123,3.535l5.177,19.319a5,5,0,0,1-3.535,6.124l-13.524,3.624a5.007,5.007,0,0,1-1.292.17A5.008,5.008,0,0,1,6865.47-4767.641Zm17.317-8.781-13.524,3.623a1,1,0,0,0-.7,1.224l.258.964a1,1,0,0,0,1.224.71l13.523-3.625a1,1,0,0,0,.708-1.224l-.258-.966a1.006,1.006,0,0,0-.967-.741A.988.988,0,0,0,6882.787-4776.421Zm-1.293-4.831-13.524,3.624a1,1,0,0,0-.707,1.224l.26.968a1,1,0,0,0,1.222.707l13.524-3.624a1,1,0,0,0,.708-1.224l-.26-.968a1,1,0,0,0-.966-.74A1,1,0,0,0,6881.494-4781.252Zm-7.23-11.523-5.794,1.553a1,1,0,0,0-.708,1.226l1.553,5.8a1,1,0,0,0,1.226.707l5.8-1.553a1,1,0,0,0,.706-1.226l-1.553-5.794a1,1,0,0,0-.968-.742A1,1,0,0,0,6874.264-4792.775Zm18.858,21.416v-21.048a7.007,7.007,0,0,0-.909-3.45l2.145.575a4.966,4.966,0,0,1,3.037,2.328,4.973,4.973,0,0,1,.5,3.795l-4.77,17.8Zm-7.673-22.407a5.969,5.969,0,0,0-2.791-3.639h3.473a5.007,5.007,0,0,1,5,5v19.842l0,0Z" transform="translate(-5807.122 5429.406)" fill="#fff"/>
  </g>
</svg>
